<svg width="195" height="56" viewBox="0 0 195 56" fill="none" xmlns="http://www.w3.org/2000/svg">
<rect width="56" height="56" rx="16" fill="#D7D7D7"/>
<circle cx="9" cy="11" r="4" fill="#0D0060"/>
<circle cx="9" cy="28" r="4" fill="#0D0060"/>
<circle cx="9" cy="45" r="4" fill="#0D0060"/>
<line x1="5" y1="19.25" x2="49" y2="19.25" stroke="#0D0060" stroke-width="0.5"/>
<line x1="5" y1="36.25" x2="49" y2="36.25" stroke="#0D0060" stroke-width="0.5"/>
<path d="M5 10.1464L8.35353 13.5L12.1464 6" stroke="#039100"/>
<path d="M5 43.1464L8.35353 46.5L12.1464 39" stroke="#039100"/>
<path d="M17.1184 7.4263C16.6996 8.6572 16.5826 9.87394 16.7231 11.1748C16.7919 11.8107 16.8915 13.4457 17.8324 13.5336C18.8958 13.6328 19.9535 12.8981 20.6247 12.1566C20.7739 11.9917 21.7214 10.8612 21.4534 10.4927C21.183 10.1208 21.0517 11.4193 21.2112 11.8506C21.7293 13.252 23.4284 13.4429 24.6218 12.8323C25.1739 12.5498 25.4234 12.2172 25.7565 11.7294C25.7908 11.6792 26.0458 11.0988 26.2665 11.0856C26.5144 11.0707 27.301 11.606 27.3503 11.6338C27.989 11.9934 29.0996 12.3303 29.0524 13.2786C29.0331 13.6658 28.6513 14.5028 28.2237 14.6683C27.8464 14.8143 28.1469 13.7728 28.4149 13.4698C30.4311 11.1904 33.4073 11.5004 36.1159 11.0473C37.8826 10.7518 37.2567 10.7422 38.6914 10.2186C39.3097 9.99286 39.2679 10.0028 39.8389 10.2058C40.3702 10.3946 40.3819 10.5295 40.9737 10.4608C41.6333 10.3842 41.3685 10.028 41.082 10.3843C40.2888 11.3711 41.9762 12.097 42.714 12.2394C44.0395 12.4952 39.9812 11.061 38.7233 11.5509C38.2873 11.7207 39.3235 12.3324 39.7624 12.4944C40.8053 12.8794 42.0159 13.126 43.122 13.2084C44.1941 13.2883 44.9024 13.2421 45.9079 12.9088C46.9753 12.555 47.2991 11.9737 48.1009 11.3278" stroke="#0D0060" stroke-width="2" stroke-linecap="round"/>
<path d="M16.7741 28.5403C17.0141 27.8985 17.8202 25.1868 18.7695 25.289C19.3818 25.355 19.654 26.5483 19.9489 26.9338C20.501 27.6555 21.2716 27.2302 21.9506 26.9465C22.1914 26.8459 23.2683 26.2971 23.6272 26.258C24.368 26.1774 24.9655 27.0118 25.6864 27.1378C26.8751 27.3455 27.8276 26.6028 28.9759 26.6405C30.1514 26.6792 30.503 27.7206 31.3984 28.2343C32.9167 29.1054 34.5017 27.3464 36.1095 27.8454C36.9532 28.1072 37.0894 28.174 38.0666 27.9028C40.1413 27.3271 42.1487 26.5224 44.2567 26.0604C45.8833 25.7039 46.5743 25.5948 48.1391 25.8309C49.2395 25.9969 50.204 26.3826 51.3266 26.4365C51.9818 26.468 51.9597 26.4974 52.1171 27.0485" stroke="#0D0060" stroke-width="2" stroke-linecap="round"/>
<path d="M18.2659 40.4743C18.3926 41.6329 18.3432 42.833 18.2659 43.9933C18.2151 44.7553 18.1632 45.5854 17.4754 46.0588C17.0591 46.3453 16.7633 45.8802 16.6084 45.5361C16.4538 45.1925 16.286 44.6199 16.3789 44.2356C16.5995 43.323 17.5428 43.709 18.1001 43.9359C19.9521 44.6899 21.2246 44.8124 23.0854 43.8212C24.2892 43.1799 25.0762 42.539 25.3166 41.2648C25.4038 40.8029 26.0121 41.9444 26.1709 42.3868C26.6561 43.739 26.8076 44.6909 25.527 45.5488C24.7864 46.0449 23.9731 46.2069 24.9596 46.9386C26.2283 47.8794 27.8285 48.7084 29.4094 48.9084C31.8462 49.2168 32.2633 47.5831 32.4694 45.5679C32.5931 44.3582 32.4426 43.3314 33.9866 43.6746C35.4389 43.9973 36.5652 45.1307 38.1304 44.8476C40.427 44.432 42.1668 42.9474 44.4034 44.3758C45.234 44.9062 45.5573 45.4612 46.539 44.9751C47.4913 44.5035 48.3893 43.9621 49.3632 43.5726" stroke="#0D0060" stroke-width="2" stroke-linecap="round"/>
<path d="M64.6641 36.3164C64.6641 35.8971 64.7552 35.4596 64.9375 35.0039C65.1198 34.5299 65.2839 34.1289 65.4297 33.8008C65.5573 33.5456 65.7578 33.1536 66.0312 32.625C66.3047 32.0781 66.6146 31.4674 66.9609 30.793C67.3073 30.1185 67.6719 29.4076 68.0547 28.6602C68.4557 27.9128 68.8294 27.2018 69.1758 26.5273C69.5221 25.8529 69.832 25.2513 70.1055 24.7227C70.3971 24.1758 70.6068 23.7747 70.7344 23.5195C70.7526 23.5013 70.7891 23.4375 70.8438 23.3281C70.9167 23.2188 70.9896 23.1094 71.0625 23C71.1536 22.8906 71.2357 22.7904 71.3086 22.6992C71.3815 22.5898 71.4271 22.5169 71.4453 22.4805C71.4635 22.444 71.4544 22.4076 71.418 22.3711C71.3815 22.3346 71.3633 22.2982 71.3633 22.2617C70.5794 22.3529 69.7591 22.4714 68.9023 22.6172C68.0638 22.763 67.2253 22.9362 66.3867 23.1367C65.5664 23.319 64.7734 23.5378 64.0078 23.793C63.2422 24.0299 62.5495 24.3034 61.9297 24.6133C61.7292 24.6133 61.5469 24.5768 61.3828 24.5039C61.2188 24.431 61.1367 24.2852 61.1367 24.0664V23.9844C61.1367 23.9661 61.1458 23.9388 61.1641 23.9023C61.2005 23.8112 61.2552 23.6745 61.3281 23.4922C61.4193 23.2917 61.4831 23.1823 61.5195 23.1641L64.0078 22.0977L80.6602 17.8594C80.8607 18.3698 80.8424 18.7799 80.6055 19.0898C80.3867 19.3815 80.0312 19.6276 79.5391 19.8281C79.0469 20.0104 78.4727 20.1745 77.8164 20.3203C77.1784 20.4479 76.5312 20.612 75.875 20.8125C75.237 20.9948 74.6445 21.25 74.0977 21.5781C73.5508 21.888 73.1406 22.3073 72.8672 22.8359C71.6823 25.1875 70.4609 27.5299 69.2031 29.8633C67.9635 32.1966 66.8242 34.5755 65.7852 37C65.7669 37 65.7305 37 65.6758 37C65.6393 37.0182 65.612 37.0273 65.5938 37.0273C65.3568 37.0273 65.138 36.9727 64.9375 36.8633C64.7552 36.7539 64.6641 36.5716 64.6641 36.3164ZM75.1094 34.7031C75.1094 34.6302 75.1094 34.4844 75.1094 34.2656C75.1276 34.0286 75.1367 33.8737 75.1367 33.8008C75.7201 32.4701 76.4674 31.2396 77.3789 30.1094C78.2904 28.9792 79.3203 27.9766 80.4688 27.1016C80.5052 27.1016 80.5599 27.0924 80.6328 27.0742C80.724 27.0378 80.7878 27.0195 80.8242 27.0195C81.3164 27.0195 81.7174 27.1289 82.0273 27.3477C82.3555 27.5482 82.6107 27.8216 82.793 28.168C82.9935 28.4961 83.1302 28.8698 83.2031 29.2891C83.276 29.6901 83.3125 30.082 83.3125 30.4648C83.3125 31.1758 83.1484 31.9232 82.8203 32.707C82.4922 33.4727 82.0456 34.1836 81.4805 34.8398C80.9336 35.4779 80.3047 36.0065 79.5938 36.4258C78.8828 36.8268 78.1445 37.0273 77.3789 37.0273C76.6133 37.0273 76.0391 36.8268 75.6562 36.4258C75.2917 36.0065 75.1094 35.4323 75.1094 34.7031ZM77.2422 34.375C77.2422 34.5755 77.3242 34.7122 77.4883 34.7852C77.6523 34.8581 77.8164 34.8945 77.9805 34.8945C78.4362 34.8945 78.8737 34.776 79.293 34.5391C79.7305 34.2839 80.1133 33.974 80.4414 33.6094C80.7878 33.2266 81.0612 32.8073 81.2617 32.3516C81.4622 31.8958 81.5625 31.4583 81.5625 31.0391C81.5625 30.8385 81.5443 30.6198 81.5078 30.3828C81.4896 30.1276 81.4349 29.9089 81.3438 29.7266C81.2526 29.526 81.1068 29.3711 80.9062 29.2617C80.724 29.1523 80.4596 29.1341 80.1133 29.207C79.8581 29.2617 79.5664 29.4987 79.2383 29.918C78.9102 30.3372 78.5911 30.8294 78.2812 31.3945C77.9896 31.9414 77.7435 32.4974 77.543 33.0625C77.3424 33.6094 77.2422 34.0469 77.2422 34.375ZM86.0742 29.8906C86.5664 29.8359 87.0951 29.7721 87.6602 29.6992C88.2435 29.6081 88.8359 29.526 89.4375 29.4531C90.0391 29.362 90.6315 29.2891 91.2148 29.2344C91.8164 29.1797 92.3815 29.1523 92.9102 29.1523C93.056 29.1523 93.2109 29.1523 93.375 29.1523C93.5391 29.1341 93.694 29.1523 93.8398 29.207C94.0039 29.2435 94.1497 29.3164 94.2773 29.4258C94.4049 29.5169 94.4961 29.6719 94.5508 29.8906C94.4414 30.0911 94.2227 30.2734 93.8945 30.4375C93.5664 30.5833 93.1745 30.7109 92.7188 30.8203C92.263 30.9297 91.7799 31.0208 91.2695 31.0938C90.7591 31.1484 90.2852 31.2031 89.8477 31.2578C89.4102 31.2943 89.0273 31.3216 88.6992 31.3398C88.3893 31.3398 88.207 31.3398 88.1523 31.3398C87.9883 31.3398 87.7878 31.3307 87.5508 31.3125C87.3138 31.276 87.0859 31.2305 86.8672 31.1758C86.6484 31.1029 86.457 31.0208 86.293 30.9297C86.1471 30.8385 86.0742 30.7383 86.0742 30.6289V29.8906ZM95.6172 36.2891C95.6172 36.0156 95.7083 35.7148 95.8906 35.3867C96.0729 35.0404 96.2826 34.7214 96.5195 34.4297C96.7747 34.1198 97.0117 33.8464 97.2305 33.6094C97.4674 33.3724 97.6406 33.2083 97.75 33.1172L103.766 22.0977C103.948 21.9518 104.112 21.7695 104.258 21.5508C104.404 21.3138 104.549 21.0951 104.695 20.8945C104.859 20.6758 105.033 20.4935 105.215 20.3477C105.415 20.2018 105.652 20.1289 105.926 20.1289C105.926 20.4206 105.889 20.776 105.816 21.1953C105.762 21.5964 105.671 21.8971 105.543 22.0977L100.375 31.3125C100.922 31.0938 101.423 31.0299 101.879 31.1211C102.353 31.194 102.79 31.349 103.191 31.5859C103.592 31.8229 103.966 32.1146 104.312 32.4609C104.677 32.7891 105.014 33.1081 105.324 33.418C105.652 33.7279 105.962 33.9922 106.254 34.2109C106.546 34.4297 106.837 34.5391 107.129 34.5391C107.767 34.5391 108.387 34.2201 108.988 33.582C109.59 32.944 110.164 32.1237 110.711 31.1211C111.258 30.1185 111.759 29.0065 112.215 27.7852C112.671 26.5638 113.062 25.3789 113.391 24.2305C113.719 23.0638 113.974 22.0065 114.156 21.0586C114.339 20.0924 114.43 19.3724 114.43 18.8984C114.43 18.6432 114.402 18.3698 114.348 18.0781C114.311 17.7682 114.229 17.4948 114.102 17.2578C113.974 17.0026 113.801 16.793 113.582 16.6289C113.382 16.4648 113.117 16.3828 112.789 16.3828C112.297 16.3828 111.85 16.5924 111.449 17.0117C111.048 17.431 110.684 17.9688 110.355 18.625C110.027 19.2812 109.736 20.0195 109.48 20.8398C109.243 21.6419 109.034 22.4258 108.852 23.1914C108.688 23.957 108.56 24.6589 108.469 25.2969C108.396 25.9349 108.359 26.418 108.359 26.7461C108.359 27.1107 108.396 27.457 108.469 27.7852C108.56 28.1133 108.66 28.4323 108.77 28.7422C108.879 29.0521 108.97 29.3711 109.043 29.6992C109.134 30.0091 109.18 30.3372 109.18 30.6836C108.669 30.6836 108.259 30.556 107.949 30.3008C107.658 30.0456 107.439 29.7266 107.293 29.3438C107.147 28.9609 107.047 28.5508 106.992 28.1133C106.956 27.6576 106.938 27.2383 106.938 26.8555C106.938 26.418 106.992 25.8073 107.102 25.0234C107.229 24.2396 107.402 23.401 107.621 22.5078C107.858 21.5964 108.141 20.6758 108.469 19.7461C108.815 18.8164 109.207 17.9779 109.645 17.2305C110.1 16.4648 110.602 15.8451 111.148 15.3711C111.714 14.8789 112.324 14.6328 112.98 14.6328C113.035 14.6328 113.154 14.6419 113.336 14.6602C113.536 14.6784 113.664 14.6875 113.719 14.6875C114.01 15.0521 114.266 15.3984 114.484 15.7266C114.703 16.0547 114.885 16.3828 115.031 16.7109C115.195 17.0391 115.314 17.3854 115.387 17.75C115.46 18.1146 115.496 18.5247 115.496 18.9805C115.496 19.5456 115.405 20.3659 115.223 21.4414C115.059 22.5169 114.812 23.7018 114.484 24.9961C114.156 26.2721 113.755 27.5846 113.281 28.9336C112.807 30.2643 112.26 31.4766 111.641 32.5703C111.021 33.6641 110.337 34.5664 109.59 35.2773C108.842 35.9701 108.04 36.3164 107.184 36.3164C106.6 36.3164 106.099 36.2253 105.68 36.043C105.279 35.8607 104.923 35.6419 104.613 35.3867C104.303 35.1133 104.021 34.8216 103.766 34.5117C103.51 34.1836 103.246 33.8919 102.973 33.6367C102.699 33.3633 102.398 33.1354 102.07 32.9531C101.742 32.7708 101.341 32.6797 100.867 32.6797C100.375 32.6797 99.9466 32.8346 99.582 33.1445C99.2174 33.4544 98.8984 33.8372 98.625 34.293C98.3516 34.7487 98.1146 35.2227 97.9141 35.7148C97.7135 36.207 97.5404 36.6354 97.3945 37C97.3581 37 97.2943 37 97.2031 37C97.1302 37.0182 97.0755 37.0273 97.0391 37.0273C96.9479 37.0273 96.8203 37.0091 96.6562 36.9727C96.5104 36.9362 96.3555 36.8906 96.1914 36.8359C96.0456 36.763 95.9089 36.681 95.7812 36.5898C95.6719 36.4987 95.6172 36.3984 95.6172 36.2891ZM116.508 34.7031C116.508 34.6302 116.508 34.4844 116.508 34.2656C116.526 34.0286 116.535 33.8737 116.535 33.8008C117.118 32.4701 117.866 31.2396 118.777 30.1094C119.689 28.9792 120.719 27.9766 121.867 27.1016C121.904 27.1016 121.958 27.0924 122.031 27.0742C122.122 27.0378 122.186 27.0195 122.223 27.0195C122.715 27.0195 123.116 27.1289 123.426 27.3477C123.754 27.5482 124.009 27.8216 124.191 28.168C124.392 28.4961 124.529 28.8698 124.602 29.2891C124.674 29.6901 124.711 30.082 124.711 30.4648C124.711 31.1758 124.547 31.9232 124.219 32.707C123.891 33.4727 123.444 34.1836 122.879 34.8398C122.332 35.4779 121.703 36.0065 120.992 36.4258C120.281 36.8268 119.543 37.0273 118.777 37.0273C118.012 37.0273 117.438 36.8268 117.055 36.4258C116.69 36.0065 116.508 35.4323 116.508 34.7031ZM118.641 34.375C118.641 34.5755 118.723 34.7122 118.887 34.7852C119.051 34.8581 119.215 34.8945 119.379 34.8945C119.835 34.8945 120.272 34.776 120.691 34.5391C121.129 34.2839 121.512 33.974 121.84 33.6094C122.186 33.2266 122.46 32.8073 122.66 32.3516C122.861 31.8958 122.961 31.4583 122.961 31.0391C122.961 30.8385 122.943 30.6198 122.906 30.3828C122.888 30.1276 122.833 29.9089 122.742 29.7266C122.651 29.526 122.505 29.3711 122.305 29.2617C122.122 29.1523 121.858 29.1341 121.512 29.207C121.257 29.2617 120.965 29.4987 120.637 29.918C120.309 30.3372 119.99 30.8294 119.68 31.3945C119.388 31.9414 119.142 32.4974 118.941 33.0625C118.741 33.6094 118.641 34.0469 118.641 34.375ZM150.988 31.3945C150.733 31.3945 150.478 31.5404 150.223 31.832C149.967 32.1055 149.685 32.4518 149.375 32.8711C149.083 33.2904 148.755 33.7552 148.391 34.2656C148.026 34.7578 147.607 35.2135 147.133 35.6328C146.677 36.0521 146.158 36.4076 145.574 36.6992C144.991 36.9727 144.326 37.1094 143.578 37.1094C143.232 37.1094 142.831 37.0911 142.375 37.0547C141.938 37.0365 141.518 36.9727 141.117 36.8633C140.734 36.7357 140.406 36.5443 140.133 36.2891C139.878 36.0156 139.75 35.6419 139.75 35.168C139.75 34.5299 139.941 33.9557 140.324 33.4453C140.725 32.9167 141.236 32.4427 141.855 32.0234C142.493 31.6042 143.195 31.2396 143.961 30.9297C144.745 30.6198 145.52 30.3555 146.285 30.1367C147.051 29.918 147.771 29.7448 148.445 29.6172C149.12 29.4714 149.667 29.362 150.086 29.2891L155.418 20.7852C155.655 20.4023 155.974 20.0013 156.375 19.582C156.776 19.1628 157.214 18.7799 157.688 18.4336C158.161 18.069 158.654 17.7682 159.164 17.5312C159.693 17.2943 160.194 17.1758 160.668 17.1758C160.759 17.1758 160.923 17.194 161.16 17.2305C161.415 17.2669 161.661 17.3945 161.898 17.6133C162.154 17.832 162.372 18.1875 162.555 18.6797C162.755 19.1719 162.855 19.8737 162.855 20.7852C162.728 20.8216 162.609 20.8854 162.5 20.9766C162.391 21.0495 162.263 21.1315 162.117 21.2227C161.99 21.2956 161.835 21.3685 161.652 21.4414C161.488 21.4961 161.297 21.5234 161.078 21.5234C161.37 20.9219 161.47 20.4479 161.379 20.1016C161.306 19.737 161.124 19.4909 160.832 19.3633C160.54 19.2357 160.176 19.2083 159.738 19.2812C159.301 19.3542 158.863 19.5091 158.426 19.7461C157.988 19.9648 157.587 20.2565 157.223 20.6211C156.876 20.9857 156.63 21.3958 156.484 21.8516L151.863 29.6719V30.0273C152.611 30.556 153.176 31.1302 153.559 31.75C153.96 32.3698 154.26 32.9987 154.461 33.6367C154.68 34.2565 154.844 34.8672 154.953 35.4688C155.062 36.0703 155.199 36.6081 155.363 37.082C155.546 37.5742 155.792 37.9753 156.102 38.2852C156.43 38.6133 156.913 38.8138 157.551 38.8867C157.551 38.9049 157.551 38.9323 157.551 38.9688C157.569 39.0052 157.578 39.0326 157.578 39.0508C157.578 39.2695 157.487 39.4336 157.305 39.543C157.141 39.6706 156.94 39.7617 156.703 39.8164C156.466 39.8893 156.22 39.9349 155.965 39.9531C155.728 39.9714 155.536 39.9805 155.391 39.9805C155.008 39.6523 154.689 39.2148 154.434 38.668C154.197 38.1211 153.987 37.5378 153.805 36.918C153.622 36.2799 153.449 35.6419 153.285 35.0039C153.139 34.3477 152.966 33.7643 152.766 33.2539C152.565 32.7253 152.328 32.2878 152.055 31.9414C151.781 31.5951 151.426 31.4128 150.988 31.3945ZM141.227 34.7852C141.227 35.0039 141.299 35.1771 141.445 35.3047C141.609 35.4323 141.801 35.5234 142.02 35.5781C142.238 35.6328 142.457 35.6693 142.676 35.6875C142.913 35.7057 143.095 35.7148 143.223 35.7148C143.715 35.7148 144.262 35.5872 144.863 35.332C145.465 35.0586 146.021 34.7122 146.531 34.293C147.06 33.8737 147.497 33.4089 147.844 32.8984C148.208 32.3698 148.391 31.8411 148.391 31.3125C146.969 31.3125 145.638 31.5677 144.398 32.0781C143.177 32.5703 142.129 33.418 141.254 34.6211C141.254 34.6393 141.245 34.6667 141.227 34.7031C141.227 34.7396 141.227 34.7669 141.227 34.7852ZM158.371 35.2227C158.371 34.9674 158.398 34.7487 158.453 34.5664C158.508 34.3659 158.608 34.1107 158.754 33.8008C158.882 33.6185 159.109 33.2721 159.438 32.7617C159.784 32.2513 160.139 31.7135 160.504 31.1484C160.887 30.5833 161.242 30.0547 161.57 29.5625C161.917 29.0521 162.154 28.6966 162.281 28.4961C162.445 28.2591 162.573 28.1315 162.664 28.1133C162.755 28.0951 162.928 28.0859 163.184 28.0859C163.348 28.0859 163.521 28.0951 163.703 28.1133C163.904 28.1315 164.031 28.2591 164.086 28.4961C163.831 29.1159 163.484 29.7083 163.047 30.2734C162.628 30.8203 162.208 31.3672 161.789 31.9141C161.388 32.4609 161.033 33.026 160.723 33.6094C160.413 34.1745 160.258 34.7852 160.258 35.4414C160.331 35.4414 160.44 35.4505 160.586 35.4688C160.75 35.487 160.923 35.5052 161.105 35.5234C161.288 35.5417 161.452 35.5599 161.598 35.5781C161.762 35.5964 161.88 35.5964 161.953 35.5781C162.062 35.5599 162.245 35.5234 162.5 35.4688C162.773 35.3958 163.056 35.3229 163.348 35.25C163.658 35.1771 163.949 35.1042 164.223 35.0312C164.496 34.9583 164.688 34.9036 164.797 34.8672C164.797 34.9036 164.797 34.9674 164.797 35.0586C164.815 35.1315 164.824 35.1862 164.824 35.2227C164.824 35.5872 164.651 35.888 164.305 36.125C163.977 36.362 163.585 36.5534 163.129 36.6992C162.691 36.8268 162.236 36.918 161.762 36.9727C161.306 37.0091 160.951 37.0273 160.695 37.0273C160.422 37.0273 160.139 37 159.848 36.9453C159.574 36.8724 159.328 36.763 159.109 36.6172C158.891 36.4714 158.708 36.2891 158.562 36.0703C158.435 35.8333 158.371 35.5508 158.371 35.2227ZM166.328 19.1992C166.565 19.1992 166.784 19.2083 166.984 19.2266C167.185 19.2448 167.358 19.2904 167.504 19.3633C167.65 19.4362 167.768 19.5456 167.859 19.6914C167.951 19.8372 167.996 20.0378 167.996 20.293C167.996 20.4023 167.996 20.5208 167.996 20.6484C167.996 20.776 167.978 20.9036 167.941 21.0312C167.923 21.1406 167.878 21.2409 167.805 21.332C167.732 21.4049 167.613 21.4414 167.449 21.4414C167.194 21.4414 166.984 21.3503 166.82 21.168C166.674 20.9857 166.565 20.776 166.492 20.5391C166.419 20.2839 166.374 20.0286 166.355 19.7734C166.337 19.5182 166.328 19.3268 166.328 19.1992ZM165.043 33.9648C165.043 33.6185 165.089 33.3177 165.18 33.0625C165.289 32.8073 165.553 32.6797 165.973 32.6797C166.009 32.6797 166.091 32.6888 166.219 32.707C166.365 32.707 166.465 32.7161 166.52 32.7344C166.501 33.5911 166.638 34.2383 166.93 34.6758C167.221 35.0951 167.768 35.3047 168.57 35.3047C169.227 35.3047 169.874 35.2044 170.512 35.0039C171.15 34.8034 171.724 34.5117 172.234 34.1289C172.763 33.7279 173.182 33.2448 173.492 32.6797C173.82 32.1146 173.984 31.4766 173.984 30.7656C173.984 30.3281 173.829 30.0182 173.52 29.8359C173.228 29.6536 172.9 29.5078 172.535 29.3984C172.171 29.2891 171.833 29.1706 171.523 29.043C171.232 28.8971 171.086 28.651 171.086 28.3047C171.086 27.8854 171.341 27.4844 171.852 27.1016C172.362 26.7188 172.964 26.3815 173.656 26.0898C174.349 25.7799 175.033 25.543 175.707 25.3789C176.4 25.1966 176.928 25.1055 177.293 25.1055C177.293 25.6341 177.174 26.0078 176.938 26.2266C176.719 26.4453 176.445 26.6185 176.117 26.7461C175.789 26.8737 175.452 27.0013 175.105 27.1289C174.777 27.2383 174.504 27.457 174.285 27.7852C174.577 28.0221 174.814 28.2409 174.996 28.4414C175.197 28.6237 175.352 28.8242 175.461 29.043C175.57 29.2617 175.643 29.5078 175.68 29.7812C175.716 30.0365 175.734 30.3464 175.734 30.7109C175.734 31.6589 175.525 32.5247 175.105 33.3086C174.704 34.0742 174.176 34.7396 173.52 35.3047C172.863 35.8516 172.116 36.2799 171.277 36.5898C170.439 36.8815 169.582 37.0273 168.707 37.0273C168.233 37.0273 167.768 36.9727 167.312 36.8633C166.875 36.7357 166.483 36.5443 166.137 36.2891C165.809 36.0339 165.544 35.7148 165.344 35.332C165.143 34.9492 165.043 34.4935 165.043 33.9648ZM177.977 34.3477C177.977 33.819 178.077 33.2904 178.277 32.7617C178.478 32.2331 178.715 31.7135 178.988 31.2031C179.262 30.6745 179.535 30.1549 179.809 29.6445C180.1 29.1341 180.319 28.6328 180.465 28.1406C180.118 28.3411 179.818 28.4596 179.562 28.4961C179.326 28.5143 179.034 28.5234 178.688 28.5234C178.651 28.5234 178.533 28.5234 178.332 28.5234C178.15 28.5052 178.031 28.4961 177.977 28.4961C178.086 28.0951 178.286 27.7396 178.578 27.4297C178.87 27.1016 179.198 26.8281 179.562 26.6094C179.945 26.3724 180.337 26.181 180.738 26.0352C181.158 25.8711 181.531 25.7435 181.859 25.6523C182.406 24.7956 182.853 23.9388 183.199 23.082C183.546 22.207 183.892 21.3594 184.238 20.5391C184.603 19.7005 185.022 18.9076 185.496 18.1602C185.988 17.3945 186.645 16.6927 187.465 16.0547L187.602 17.0938L184.184 25.1055C184.384 25.0508 184.63 24.9961 184.922 24.9414C185.214 24.8867 185.505 24.832 185.797 24.7773C186.107 24.7227 186.398 24.6771 186.672 24.6406C186.964 24.5859 187.21 24.5312 187.41 24.4766C187.428 24.4766 187.483 24.4766 187.574 24.4766C187.665 24.4583 187.738 24.4492 187.793 24.4492C188.048 24.4492 188.258 24.4948 188.422 24.5859C188.586 24.6771 188.723 24.8776 188.832 25.1875C187.592 25.5521 186.471 25.9349 185.469 26.3359C184.466 26.737 183.591 27.2656 182.844 27.9219C182.115 28.5599 181.513 29.3802 181.039 30.3828C180.583 31.3672 180.264 32.6341 180.082 34.1836C180.082 34.5117 180.1 34.8125 180.137 35.0859C180.173 35.3594 180.401 35.5234 180.82 35.5781C181.24 35.5781 181.632 35.4961 181.996 35.332C182.361 35.168 182.716 34.9948 183.062 34.8125C183.409 34.612 183.755 34.4297 184.102 34.2656C184.466 34.1016 184.858 34.0195 185.277 34.0195C185.277 34.457 185.086 34.8581 184.703 35.2227C184.32 35.5872 183.855 35.9062 183.309 36.1797C182.78 36.4531 182.233 36.6628 181.668 36.8086C181.103 36.9544 180.638 37.0273 180.273 37.0273C179.909 37.0273 179.581 36.9544 179.289 36.8086C178.997 36.6628 178.751 36.4714 178.551 36.2344C178.368 35.9792 178.223 35.6875 178.113 35.3594C178.022 35.0312 177.977 34.694 177.977 34.3477Z" fill="#0D0060"/>
</svg>
