<svg width="70" height="70" viewBox="0 0 70 70" fill="none" xmlns="http://www.w3.org/2000/svg">
<path fill-rule="evenodd" clip-rule="evenodd" d="M42 21.5C42 32.8218 32.8218 42 21.5 42C10.1782 42 1 32.8218 1 21.5C1 10.1782 10.1782 1 21.5 1C32.8218 1 42 10.1782 42 21.5ZM36.7028 36.7028C32.8121 40.5935 27.4371 43 21.5 43C9.62588 43 0 33.3741 0 21.5C0 9.62588 9.62588 0 21.5 0C33.3741 0 43 9.62588 43 21.5C43 27.0773 40.8763 32.1586 37.3936 35.9793L69.7071 68.2929L69 69L36.7028 36.7028Z" fill="#0D0060"/>
</svg>
